<svg width="48" height="49" viewBox="0 0 48 49" fill="none" xmlns="http://www.w3.org/2000/svg">
<ellipse cx="24" cy="24.4448" rx="24" ry="24.0525" fill="#FFB577" fill-opacity="0.07"/>
<path d="M27.6128 21.0593L27.6128 21.0592L27.6117 21.052C27.2824 18.8513 26.8973 16.2777 24.0652 14.0372C22.5104 12.807 20.8932 12.1686 19.2607 12.1686C16.2912 12.1686 14.4199 14.2696 14.3216 14.3828C14.2455 14.4679 13.4936 15.3196 12.8227 16.6362C12.1484 17.9595 11.5456 19.7733 11.8162 21.7593C12.1473 24.1895 13.6974 26.2705 16.3611 27.955L16.361 27.9553L16.3713 27.9612L16.4219 27.9899L16.4217 27.9902L16.4334 27.996C16.5402 28.0495 17.8407 28.6956 19.3016 29.3867C20.7543 30.0739 22.3911 30.8179 23.1573 31.0564L23.1574 31.0564C23.8433 31.2697 24.4213 31.3738 24.9668 31.3738C25.3966 31.3738 25.801 31.304 26.1795 31.1678L28.6922 32.7584C28.6471 33.1916 28.6327 33.8107 28.791 34.4378C28.9714 35.1525 29.3799 35.8881 30.2261 36.3551C30.6605 36.595 31.1479 36.7208 31.6434 36.721H31.6435C32.353 36.721 33.0553 36.4636 33.6041 35.9647C34.2203 35.4044 34.5302 34.6446 34.493 33.8522C34.9714 33.7039 35.5445 33.419 35.9113 32.8689L35.9116 32.8685C36.1972 32.4384 36.4292 31.719 36.0575 30.6918C35.672 29.624 34.8845 29.0982 34.0363 28.8933C33.2515 28.7038 32.4127 28.7864 31.7677 28.9473L29.5437 27.1922C29.6678 26.4455 29.4781 25.7243 28.9786 25.1056C28.0514 23.9541 27.8412 22.5887 27.6128 21.0593ZM26.9075 28.3776L26.873 28.4051L26.8499 28.4428L26.7961 28.5309L26.7953 28.5322C26.4648 29.0813 26.1221 29.3702 25.8153 29.5249C25.5076 29.6802 25.2156 29.7109 24.9676 29.7109C24.6068 29.7109 24.1905 29.6372 23.6465 29.4685C22.9916 29.2648 21.4874 28.5826 20.0773 27.9157C18.7014 27.2651 17.4398 26.6411 17.2056 26.5252C14.9499 25.0888 13.7118 23.4089 13.4553 21.5409L13.4553 21.5408C13.2388 19.9673 13.7474 18.4675 14.3289 17.3428C14.6185 16.7827 14.9232 16.3215 15.1571 15.9987C15.274 15.8374 15.373 15.7109 15.4432 15.6243C15.513 15.5382 15.5536 15.4925 15.5547 15.4912L15.5547 15.4912L15.5547 15.4912L15.557 15.4886L15.5571 15.4885C15.5631 15.4819 15.9335 15.069 16.5794 14.657C17.2326 14.2403 18.1553 13.8322 19.2612 13.8322C20.4899 13.8322 21.7617 14.3298 23.0437 15.3444C25.3555 17.1739 25.6526 19.1385 25.9778 21.3075C25.9778 21.3075 25.9778 21.3075 25.9778 21.3075L25.9812 21.3303C26.2196 22.9225 26.477 24.6418 27.6944 26.153L27.6947 26.1534C27.7975 26.2805 27.8907 26.4299 27.9213 26.6201C27.9513 26.8065 27.9258 27.063 27.7347 27.4125L27.7346 27.4127C27.4871 27.8664 27.1216 28.1938 26.9984 28.3041C26.9945 28.3076 26.9908 28.3109 26.9874 28.314L26.9874 28.3139L26.9075 28.3776ZM27.8891 25.9961C28.1213 26.2832 28.3793 26.7549 27.954 27.5325L27.8891 25.9961ZM32.6834 33.1228L32.9325 33.1438L32.6834 33.1228C32.6722 33.2563 32.6932 33.3906 32.7447 33.5142L32.7447 33.5142C32.8854 33.8517 32.8587 34.1142 32.7865 34.3084C32.7117 34.5098 32.5813 34.6535 32.4971 34.7302C32.1614 35.0353 31.5755 35.2028 31.0217 34.8969L31.0216 34.8968C30.532 34.6267 30.3574 34.0864 30.323 33.5432C30.289 33.0077 30.3981 32.5453 30.3971 32.5493L30.3972 32.5488C30.4397 32.3789 30.4275 32.1997 30.3625 32.0371C30.2975 31.8744 30.1828 31.7363 30.0346 31.643C30.0346 31.643 30.0346 31.643 30.0346 31.643L27.6605 30.1407C27.8368 29.9445 27.9964 29.7335 28.1376 29.51C28.394 29.2784 28.6273 29.0225 28.8345 28.7459L31.082 30.5191L31.0831 30.52C31.1918 30.6049 31.32 30.6614 31.456 30.6844C31.592 30.7074 31.7316 30.6961 31.8621 30.6516L31.8621 30.6516L31.866 30.6502C31.904 30.6366 32.47 30.4445 33.0844 30.4423C33.7019 30.4402 34.2745 30.6235 34.5043 31.2592L34.5045 31.2598C34.6382 31.6269 34.6098 31.8341 34.5392 31.9416C34.4559 32.0675 34.2703 32.1756 34.0308 32.2532C33.8018 32.3274 33.5746 32.3573 33.4733 32.3623C33.3399 32.3677 33.2099 32.4056 33.0944 32.4726L33.2197 32.6889L33.0944 32.4726C32.9785 32.5397 32.8807 32.634 32.8092 32.7472C32.7377 32.8605 32.6946 32.9894 32.6834 33.1228Z" fill="#FFB577" stroke="#FFB577" stroke-width="0.5"/>
</svg>
