<svg width="48" height="49" viewBox="0 0 48 49" fill="none" xmlns="http://www.w3.org/2000/svg">
<ellipse cx="24" cy="24.695" rx="24" ry="24.0525" fill="#FFB577" fill-opacity="0.07"/>
<path d="M31.0011 18.8263C31.0225 18.684 31.013 18.5387 30.9733 18.4003C30.9336 18.262 30.8647 18.1338 30.7711 18.0246C30.6752 17.9151 30.5566 17.8279 30.4236 17.7691C30.2907 17.7102 30.1465 17.6811 30.0011 17.6838V15.6795C30.0011 15.4137 29.8958 15.1588 29.7082 14.9708C29.5207 14.7829 29.2663 14.6773 29.0011 14.6773H27.0011V14.086L27.7111 13.3845C27.8994 13.1957 28.0052 12.9398 28.0052 12.6729C28.0052 12.406 27.8994 12.1501 27.7111 11.9614C27.5228 11.7726 27.2674 11.6666 27.0011 11.6666C26.7348 11.6666 26.4794 11.7726 26.2911 11.9614L25.2911 12.9635C25.1984 13.0572 25.1251 13.1682 25.0754 13.2904C25.0256 13.4125 25.0004 13.5432 25.0011 13.6751V14.6773H18.0011C17.7359 14.6773 17.4816 14.7829 17.294 14.9708C17.1065 15.1588 17.0011 15.4137 17.0011 15.6795V17.6838C16.8575 17.6826 16.7152 17.7124 16.5841 17.7712C16.4529 17.83 16.3359 17.9164 16.2411 18.0246C16.1476 18.1338 16.0786 18.262 16.0389 18.4003C15.9992 18.5387 15.9898 18.684 16.0111 18.8263L18.0111 32.7868V35.7232C18.0111 35.989 18.1165 36.2439 18.304 36.4318C18.4916 36.6198 18.7459 36.7254 19.0111 36.7254H28.0111C28.2763 36.7254 28.5307 36.6198 28.7182 36.4318C28.9058 36.2439 29.0111 35.989 29.0111 35.7232V32.7868L31.0011 18.8263ZM18.1511 19.6882H28.8511L27.1311 31.7144H19.8711L18.1511 19.6882ZM19.0011 16.6817H28.0011V17.6838H19.0011V16.6817ZM27.0011 34.721H20.0011V33.7188H27.0011V34.721Z" fill="#FFB577"/>
</svg>
