<svg width="48" height="49" viewBox="0 0 48 49" fill="none" xmlns="http://www.w3.org/2000/svg">
<ellipse cx="24" cy="24.6928" rx="24" ry="24.0525" fill="#FFB577" fill-opacity="0.07"/>
<path fill-rule="evenodd" clip-rule="evenodd" d="M33.2 23.3566H30.8V16.5417C30.8004 16.432 30.7799 16.3232 30.7399 16.2217C30.6998 16.1202 30.6409 16.028 30.5665 15.9503C30.4921 15.8727 30.4038 15.8112 30.3066 15.7694C30.2094 15.7275 30.1052 15.7062 30 15.7066H29.6V12.4996C29.6 12.2781 29.5157 12.0657 29.3657 11.909C29.2157 11.7524 29.0122 11.6644 28.8 11.6644C28.5878 11.6644 28.3843 11.7524 28.2343 11.909C28.0843 12.0657 28 12.2781 28 12.4996V15.7066H26.4V12.4996C26.4 12.2781 26.3157 12.0657 26.1657 11.909C26.0157 11.7524 25.8122 11.6644 25.6 11.6644C25.3878 11.6644 25.1843 11.7524 25.0343 11.909C24.8843 12.0657 24.8 12.2781 24.8 12.4996V15.7066H23.2V12.4996C23.2 12.2781 23.1157 12.0657 22.9657 11.909C22.8157 11.7524 22.6122 11.6644 22.4 11.6644C22.1878 11.6644 21.9843 11.7524 21.8343 11.909C21.6843 12.0657 21.6 12.2781 21.6 12.4996V15.7066H20V12.4996C20 12.2781 19.9157 12.0657 19.7657 11.909C19.6157 11.7524 19.4122 11.6644 19.2 11.6644C18.9878 11.6644 18.7843 11.7524 18.6343 11.909C18.4843 12.0657 18.4 12.2781 18.4 12.4996V15.7066H18C17.8948 15.7062 17.7906 15.7275 17.6934 15.7694C17.5962 15.8112 17.5079 15.8727 17.4335 15.9503C17.3591 16.028 17.3002 16.1202 17.2601 16.2217C17.2201 16.3232 17.1996 16.432 17.2 16.5417V23.3566H14.8C14.588 23.3573 14.3849 23.4455 14.235 23.6019C14.0851 23.7584 14.0006 23.9705 14 24.1917V35.8839C13.9996 35.9937 14.0201 36.1025 14.0601 36.204C14.1002 36.3055 14.1591 36.3977 14.2335 36.4753C14.3079 36.5529 14.3962 36.6145 14.4934 36.6563C14.5906 36.6981 14.6948 36.7195 14.8 36.7191H33.2C33.3052 36.7195 33.4094 36.6981 33.5066 36.6563C33.6038 36.6145 33.6921 36.5529 33.7665 36.4753C33.8409 36.3977 33.8998 36.3055 33.9399 36.204C33.9799 36.1025 34.0004 35.9937 34 35.8839V24.1917C33.9994 23.9705 33.9149 23.7584 33.765 23.6019C33.6151 23.4455 33.412 23.3573 33.2 23.3566ZM18.8 17.3769H29.2V23.3566H18.8V17.3769ZM15.6 25.0269H32.4V26.8308C31.8895 27.0253 31.437 27.3565 31.088 27.7913C30.72 28.1921 30.536 28.3675 30.128 28.3675C29.72 28.3675 29.544 28.1921 29.168 27.7913C28.9215 27.4513 28.6028 27.1756 28.2371 26.9858C27.8713 26.796 27.4684 26.6972 27.06 26.6972C26.6516 26.6972 26.2487 26.796 25.8829 26.9858C25.5172 27.1756 25.1985 27.4513 24.952 27.7913C24.584 28.1921 24.4 28.3675 23.992 28.3675C23.584 28.3675 23.408 28.1921 23.04 27.7913C22.7926 27.4512 22.4733 27.1755 22.1069 26.9857C21.7405 26.7959 21.337 26.6971 20.928 26.6971C20.519 26.6971 20.1155 26.7959 19.7491 26.9857C19.3827 27.1755 19.0634 27.4512 18.816 27.7913C18.448 28.1921 18.272 28.3675 17.864 28.3675C17.456 28.3675 17.28 28.1921 16.912 27.7913C16.5646 27.3546 16.1116 27.023 15.6 26.8308V25.0269ZM32.4 35.0488H15.6V28.7851C15.648 28.8269 15.696 28.8853 15.752 28.9438C15.9994 29.2838 16.3187 29.5595 16.6851 29.7493C17.0515 29.9392 17.455 30.0379 17.864 30.0379C18.273 30.0379 18.6765 29.9392 19.0429 29.7493C19.4093 29.5595 19.7286 29.2838 19.976 28.9438C20.344 28.5513 20.52 28.3675 20.928 28.3675C21.336 28.3675 21.52 28.5513 21.88 28.9521C22.1288 29.2899 22.4487 29.5635 22.8149 29.7517C23.1811 29.94 23.5838 30.0379 23.992 30.0379C24.4002 30.0379 24.8029 29.94 25.1691 29.7517C25.5353 29.5635 25.8552 29.2899 26.104 28.9521C26.472 28.5513 26.648 28.3675 27.056 28.3675C27.472 28.3675 27.648 28.5513 28.016 28.9521C28.2648 29.2899 28.5847 29.5635 28.9509 29.7517C29.3171 29.94 29.7198 30.0379 30.128 30.0379C30.5362 30.0379 30.9389 29.94 31.3051 29.7517C31.6713 29.5635 31.9911 29.2899 32.24 28.9521C32.296 28.8853 32.352 28.8269 32.4 28.7767V35.0488Z" fill="#FFB577"/>
</svg>
