<svg width="48" height="49" viewBox="0 0 48 49" fill="none" xmlns="http://www.w3.org/2000/svg">
<ellipse cx="24" cy="24.4448" rx="24" ry="24.0525" fill="#FFB577" fill-opacity="0.07"/>
<path d="M34.0896 14.7052V11.1154C34.0859 10.9543 34.0406 10.7969 33.9581 10.6586C33.8757 10.5203 33.7588 10.4058 33.619 10.3262C33.4792 10.2467 33.3212 10.2048 33.1604 10.2047C32.9996 10.2047 32.8416 10.2464 32.7017 10.3258L31.6436 10.9639L30.5855 10.3258C30.4426 10.2407 30.2793 10.1962 30.113 10.197C29.9468 10.1978 29.7839 10.2439 29.6419 10.3304L28.5884 10.9639L27.5303 10.3304C27.3881 10.2437 27.2249 10.1978 27.0585 10.1978C26.892 10.1978 26.7288 10.2437 26.5867 10.3304L25.5332 10.9639L24.4796 10.3304C24.3375 10.2437 24.1743 10.1978 24.0078 10.1978C23.8414 10.1978 23.6782 10.2437 23.536 10.3304L22.4825 10.9639L21.4244 10.3304C21.2819 10.2446 21.1189 10.1993 20.9526 10.1993C20.7864 10.1993 20.6233 10.2446 20.4808 10.3304L19.4273 10.9639L18.3738 10.3304C18.2317 10.2437 18.0684 10.1978 17.902 10.1978C17.7356 10.1978 17.5724 10.2437 17.4302 10.3304L16.3767 10.9639L15.3232 10.3304C15.1839 10.2496 15.0259 10.2066 14.865 10.2057C14.704 10.2049 14.5456 10.2461 14.4054 10.3254C14.2652 10.4047 14.1481 10.5193 14.0657 10.6578C13.9832 10.7964 13.9383 10.9541 13.9353 11.1154V14.7052C12.7214 20.821 12.7214 27.1166 13.9353 33.2325V36.8223C13.939 36.9834 13.9842 37.1408 14.0667 37.2791C14.1492 37.4174 14.266 37.5319 14.4059 37.6115C14.5457 37.691 14.7037 37.7329 14.8645 37.7329C15.0252 37.733 15.1833 37.6913 15.3232 37.6119L16.3813 36.9738L17.4394 37.6119C17.5823 37.697 17.7456 37.7415 17.9118 37.7407C18.078 37.7399 18.2409 37.6938 18.383 37.6073L19.4365 36.9738L20.4946 37.6073C20.6367 37.694 20.8 37.7399 20.9664 37.7399C21.1328 37.7399 21.296 37.694 21.4382 37.6073L22.4917 36.9738L23.5452 37.6073C23.6874 37.694 23.8506 37.7399 24.017 37.7399C24.1834 37.7399 24.3466 37.694 24.4888 37.6073L25.5423 36.9738L26.6004 37.6073C26.7429 37.6931 26.906 37.7384 27.0722 37.7384C27.2384 37.7384 27.4015 37.6931 27.544 37.6073L28.5975 36.9738L29.651 37.6073C29.7932 37.694 29.9564 37.7399 30.1228 37.7399C30.2893 37.7399 30.4525 37.694 30.5946 37.6073L31.6481 36.9738L32.7017 37.6073C32.8411 37.6875 32.9989 37.73 33.1597 37.7306C33.3204 37.7313 33.4786 37.6899 33.6186 37.6107C33.7586 37.5316 33.8756 37.4172 33.9582 37.279C34.0408 37.1408 34.086 36.9834 34.0896 36.8223V33.2325C35.3034 27.1166 35.3034 20.821 34.0896 14.7052ZM15.7675 12.7358L15.9049 12.8184C16.0471 12.9052 16.2103 12.951 16.3767 12.951C16.5431 12.951 16.7063 12.9052 16.8485 12.8184L17.902 12.185L18.9555 12.8184C19.0977 12.9052 19.2609 12.951 19.4273 12.951C19.5937 12.951 19.757 12.9052 19.8991 12.8184L20.9526 12.185L22.0107 12.8184C22.1532 12.9042 22.3163 12.9496 22.4825 12.9496C22.6488 12.9496 22.8118 12.9042 22.9543 12.8184L24.0078 12.185L25.0614 12.8184C25.2035 12.9052 25.3667 12.951 25.5332 12.951C25.6996 12.951 25.8628 12.9052 26.0049 12.8184L27.0585 12.185L28.1166 12.8184C28.2587 12.9054 28.4219 12.9514 28.5884 12.9516C28.7547 12.9502 28.9176 12.9042 29.0602 12.8184L30.1137 12.185L31.1718 12.823C31.3151 12.9065 31.4778 12.9504 31.6436 12.9504C31.8093 12.9504 31.9721 12.9065 32.1154 12.823L32.2574 12.7358V13.8697H15.7675V12.7358ZM32.2574 35.2019L32.1199 35.1192C31.9778 35.0325 31.8146 34.9866 31.6481 34.9866C31.4817 34.9866 31.3185 35.0325 31.1763 35.1192L30.1228 35.7527L29.0693 35.1192C28.9272 35.0325 28.7639 34.9866 28.5975 34.9866C28.4311 34.9866 28.2679 35.0325 28.1257 35.1192L27.0722 35.7527L26.0141 35.1192C25.8716 35.0334 25.7085 34.9881 25.5423 34.9881C25.3761 34.9881 25.213 35.0334 25.0705 35.1192L24.017 35.7527L22.9635 35.1192C22.8213 35.0325 22.6581 34.9866 22.4917 34.9866C22.3253 34.9866 22.1621 35.0325 22.0199 35.1192L20.9664 35.7527L19.9083 35.1192C19.7658 35.0334 19.6027 34.9881 19.4365 34.9881C19.2703 34.9881 19.1072 35.0334 18.9647 35.1192L17.9112 35.7527L16.8531 35.1146C16.7098 35.0312 16.547 34.9872 16.3813 34.9872C16.2156 34.9872 16.0528 35.0312 15.9095 35.1146L15.7675 35.2019V34.068H32.2574V35.2019ZM32.4177 32.2318H15.6072C14.604 26.769 14.604 21.1687 15.6072 15.7059H32.4177C33.4208 21.1687 33.4208 26.769 32.4177 32.2318Z" fill="#FFB577"/>
<path d="M28.0753 21.2651C27.8069 20.9606 27.477 20.7167 27.1074 20.5497C26.7378 20.3827 26.3371 20.2964 25.9316 20.2965H25.5011C25.3086 20.2992 25.1168 20.3207 24.9285 20.3608V18.9193C24.9285 18.6758 24.832 18.4423 24.6602 18.2701C24.4884 18.0979 24.2554 18.0012 24.0124 18.0012C23.7694 18.0012 23.5364 18.0979 23.3646 18.2701C23.1928 18.4423 23.0963 18.6758 23.0963 18.9193V20.3608C22.908 20.3207 22.7162 20.2992 22.5237 20.2965H22.0932C21.6875 20.2966 21.2866 20.3832 20.9168 20.5504C20.5471 20.7176 20.217 20.9616 19.9485 21.2663C19.68 21.571 19.4791 21.9294 19.3593 22.3178C19.2394 22.7061 19.2033 23.1156 19.2533 23.519L19.6838 26.9665C19.7717 27.6595 20.1085 28.2967 20.6312 28.7589C21.1539 29.221 21.8267 29.4765 22.5237 29.4775C23.0499 29.4768 23.5655 29.329 24.0124 29.0506C24.4593 29.329 24.9749 29.4768 25.5011 29.4775C26.1981 29.4765 26.8709 29.221 27.3936 28.7589C27.9163 28.2967 28.2531 27.6595 28.341 26.9665L28.7716 23.519C28.8212 23.1154 28.7849 22.7057 28.6648 22.3172C28.5448 21.9286 28.3439 21.57 28.0753 21.2651ZM26.9531 23.2941L26.5225 26.737C26.4908 26.9863 26.3697 27.2156 26.1818 27.382C25.9938 27.5484 25.7519 27.6406 25.5011 27.6413C25.3509 27.6401 25.2029 27.6057 25.0675 27.5407C24.9322 27.4756 24.8128 27.3815 24.7178 27.2649C24.6315 27.1614 24.5236 27.0782 24.4018 27.0211C24.2799 26.964 24.147 26.9344 24.0124 26.9344C23.8779 26.9344 23.745 26.964 23.6231 27.0211C23.5012 27.0782 23.3933 27.1614 23.307 27.2649C23.2121 27.3815 23.0927 27.4756 22.9573 27.5407C22.8219 27.6057 22.6739 27.6401 22.5237 27.6413C22.273 27.6406 22.031 27.5484 21.8431 27.382C21.6551 27.2156 21.534 26.9863 21.5023 26.737L21.0717 23.2941C21.0539 23.1489 21.067 23.0016 21.1102 22.8618C21.1533 22.7221 21.2255 22.5931 21.322 22.4834C21.4186 22.3736 21.5372 22.2856 21.6701 22.2252C21.803 22.1648 21.9472 22.1332 22.0932 22.1327H22.5237C22.6739 22.1339 22.8219 22.1683 22.9573 22.2333C23.0927 22.2984 23.2121 22.3926 23.307 22.5091C23.3963 22.6078 23.5052 22.6866 23.6266 22.7405C23.7481 22.7945 23.8795 22.8224 24.0124 22.8224C24.1453 22.8224 24.2767 22.7945 24.3982 22.7405C24.5197 22.6866 24.6285 22.6078 24.7178 22.5091C24.8128 22.3926 24.9322 22.2984 25.0675 22.2333C25.2029 22.1683 25.3509 22.1339 25.5011 22.1327H25.9316C26.0776 22.1332 26.2218 22.1648 26.3547 22.2252C26.4876 22.2856 26.6063 22.3736 26.7028 22.4834C26.7993 22.5931 26.8715 22.7221 26.9146 22.8618C26.9578 23.0016 26.9709 23.1489 26.9531 23.2941Z" fill="#FFB577"/>
</svg>
