<svg width="48" height="49" viewBox="0 0 48 49" fill="none" xmlns="http://www.w3.org/2000/svg">
<ellipse cx="24" cy="24.695" rx="24" ry="24.0525" fill="#FFB577" fill-opacity="0.07"/>
<path d="M28.4063 31.8651V28.4755C28.4063 28.2507 28.324 28.0352 28.1774 27.8763C28.0309 27.7173 27.8322 27.6281 27.625 27.6281H12.7813C12.5741 27.6281 12.3753 27.7173 12.2288 27.8763C12.0823 28.0352 12 28.2507 12 28.4755V31.8651C12 32.0899 12.0823 32.3054 12.2288 32.4643C12.3753 32.6232 12.5741 32.7125 12.7813 32.7125H27.625C27.8322 32.7125 28.0309 32.6232 28.1774 32.4643C28.324 32.3054 28.4063 32.0899 28.4063 31.8651ZM26.8438 31.0177H13.5625V29.3229H26.8438V31.0177ZM14.3438 25.0858C14.1366 25.0858 13.9378 25.1751 13.7913 25.334C13.6448 25.493 13.5625 25.7085 13.5625 25.9332C13.5625 26.158 13.6448 26.3735 13.7913 26.5325C13.9378 26.6914 14.1366 26.7807 14.3438 26.7807H26.0625C26.2697 26.7807 26.4684 26.6914 26.6149 26.5325C26.7615 26.3735 26.8438 26.158 26.8438 25.9332C26.8438 25.7085 26.7615 25.493 26.6149 25.334C26.4684 25.1751 26.2697 25.0858 26.0625 25.0858H14.3438ZM12.7813 24.2384H27.625C27.8322 24.2384 28.0309 24.1491 28.1774 23.9902C28.324 23.8313 28.4063 23.6158 28.4063 23.391C28.4063 23.3317 28.3125 17.4592 20.2031 17.4592C12.0938 17.4592 12 23.3317 12 23.391C12 23.6158 12.0823 23.8313 12.2288 23.9902C12.3753 24.1491 12.5741 24.2384 12.7813 24.2384ZM20.2031 19.154C24.9172 19.154 26.2852 21.3013 26.6817 22.5436H13.7246C14.1211 21.3013 15.4891 19.154 20.2031 19.154ZM36.2188 15.7643H32.193L31.5207 11.3879C31.5055 11.2765 31.4701 11.1696 31.4163 11.0732C31.3626 10.9769 31.2917 10.8931 31.2078 10.8269C31.1239 10.7606 31.0287 10.7131 30.9277 10.6872C30.8267 10.6613 30.7219 10.6574 30.6195 10.6759C30.5172 10.6944 30.4192 10.7349 30.3314 10.7949C30.2436 10.8549 30.1677 10.9333 30.1081 11.0255C30.0485 11.1177 30.0065 11.2219 29.9844 11.3319C29.9624 11.4419 29.9608 11.5556 29.9797 11.6663L30.609 15.7643H29.9688C29.8626 15.7643 29.7575 15.7878 29.6599 15.8334C29.5623 15.8789 29.4744 15.9456 29.4014 16.0293C29.3283 16.1129 29.2718 16.2119 29.2353 16.32C29.1987 16.4282 29.1829 16.5433 29.1887 16.6584L29.9699 31.9117C29.9809 32.1281 30.0679 32.3316 30.213 32.4806C30.3581 32.6295 30.5503 32.7125 30.75 32.7125H35.4375C35.6372 32.7125 35.8294 32.6296 35.9744 32.4807C36.1195 32.3319 36.2065 32.1284 36.2176 31.9121L36.9989 16.6588C37.0046 16.5438 36.9887 16.4287 36.9521 16.3205C36.9155 16.2124 36.8589 16.1135 36.786 16.0298C36.713 15.9461 36.6251 15.8794 36.5275 15.8338C36.43 15.7881 36.325 15.7645 36.2188 15.7643ZM34.6985 31.0177H31.4891L30.7946 17.4592H35.3926L34.6985 31.0177Z" fill="#FFB577"/>
</svg>
