<svg xmlns="http://www.w3.org/2000/svg" width="80" height="57" fill="none"><path fill="#FFB577" fill-rule="evenodd" d="M12.249 34.04c.656.202 1.282.264 1.877.184a6.03 6.03 0 0 0 .53-.095c-2.449 2.535-3.585 5.219-3.409 8.053.077 1.254 1.072 1.71 2.986 1.37 1.607-.285 3.084-1.023 4.433-2.214 1.392-1.222 2.194-2.535 2.408-3.938.037-.202-.027-.288-.192-.258-.142.025-.268.206-.38.542-.301.907-.983 1.87-2.046 2.887-1.234 1.146-2.407 1.817-3.517 2.015-1.205.214-1.89-.14-2.054-1.061-.504-2.836 1.208-5.687 5.134-8.555 3.238-2.355 6.428-3.812 9.571-4.37a23.922 23.922 0 0 1 4.323-.367c1.483-.02 2.725.247 3.725.8 1.108.608 1.754 1.431 1.939 2.471.092.52.051 1.112-.123 1.777-.867 3.08-4.04 5.106-9.523 6.08l-.957.171c-.288.027-.564.052-.828.074 2.385-4.958 3.92-7.29 4.607-6.998.107.054.173.152.198.294l.025.141c-.112.19-.158.345-.137.464.03.165.113.223.25.174.142-.025.242-.152.298-.382.076-.257.096-.492.058-.705-.093-.52-.422-.729-.99-.628-.425.075-.937.483-1.537 1.224-.604.717-1.259 1.625-1.965 2.726a536.474 536.474 0 0 0-2.13 3.45c-.8-.394-1.415-.492-1.843-.294-.703.296-1.006.715-.91 1.259.072.401.355.558.852.47.189-.034.426-.137.712-.31l.605.112c-.183.203-.392.533-.628.99-4.122 8.216-7.696 12.654-10.723 13.314-1.854.403-2.899-.057-3.134-1.38-.126-.71.007-1.538.4-2.485.387-.97.936-1.86 1.645-2.67.304-.346.446-.578.425-.696-.009-.048-.06-.063-.155-.046-.52.092-1.1.598-1.741 1.516-.291.418-.566.93-.824 1.536a9.389 9.389 0 0 0-.577 1.894c-.132.633-.151 1.21-.059 1.73.147.826.536 1.367 1.166 1.62.607.258 1.335.311 2.186.16 2.86-.508 5.443-2.357 7.753-5.547.529-.727 1.192-1.796 1.99-3.205a153.538 153.538 0 0 0 2.783-5.322c-.045.569.623 2.205 2.006 4.909a37.691 37.691 0 0 0 1.96 3.418c.707 1.093 1.458 1.959 2.254 2.597.82.635 1.702.868 2.647.7 1.087-.194 1.952-1.018 2.596-2.473.474-.96.675-1.74.604-2.341a3.32 3.32 0 0 0 2.023.265c1.252-.222 2.67-1.157 4.255-2.804a20.513 20.513 0 0 0 2.242-2.673c.094-.113.198-.25.311-.413.562 1.24 1.168 2.18 1.818 2.821.674.636 1.566.855 2.676.658a6.293 6.293 0 0 0 1.322-.382c.409-.17.748-.388 1.017-.656l1.002-.946c.931-.385 1.724-.794 2.378-1.227a9.092 9.092 0 0 0 1.787-1.67c.178-.226.358-.47.54-.73-.117.702-.136 1.282-.054 1.74.168.945.498 1.57.99 1.872.513.274 1.147.344 1.903.21.756-.135 1.548-.41 2.376-.825.852-.42 1.71-1.01 2.573-1.774a15.962 15.962 0 0 0 2.588-2.9c-.094.567-.103 1.065-.026 1.494.092.52.354 1.034.786 1.543.427.484.936.674 1.527.57l.567-.102c1.323-.235 2.714-1.665 4.174-4.288 1.428-2.521 1.944-4.149 1.545-4.882 1.709-1.084 2.54-1.829 2.491-2.235-.794.605-1.51.963-2.148 1.077-.19.033-.314.019-.374-.043.006-.245.001-.476-.013-.693a2.824 2.824 0 0 0-.036-.615c-.227-1.276-.943-1.807-2.148-1.593-1.276.227-2.725 1.813-4.347 4.759-.626 1.14-1.11 2.166-1.454 3.078a24.027 24.027 0 0 1-1.766 2.43 17.69 17.69 0 0 1-1.756 1.848c-.211.184-.565.454-1.063.81-.478.33-.995.64-1.552.935-.557.294-1.048.479-1.474.554-.638.114-1.12.078-1.445-.108a1.267 1.267 0 0 1-.596-.882c-.075-.425-.027-1.043.146-1.854.192-.838.45-1.725.77-2.66.322-.934.658-1.786 1.009-2.556.35-.769.666-1.325.946-1.667.067-.036.503-.187 1.31-.452.83-.27 2.017-.651 3.562-1.145 2.725-.85 4.069-1.382 4.031-1.595-.008-.047-.05-.076-.125-.087-.047.008-.281.062-.703.161-.425.076-.93.178-1.517.307l-1.666.296-1.206.214-1.488.265a9.09 9.09 0 0 1-.928.128c.907-1.477 1.334-2.37 1.28-2.677-.039-.213-.266-.392-.681-.537-.337-.111-.588-.152-.753-.122l-.107.019c-.353.209-.777.772-1.272 1.688-.34.695-.674 1.351-1.002 1.97l-2.056.366c-.09.04-.171.067-.242.08l-.07.012c-.162.053-.336.17-.524.349-.164.175-.222.393-.176.653.096.543.5.752 1.208.626.236-.042.502-.126.796-.251a325.824 325.824 0 0 0-.978 3.135 33.859 33.859 0 0 0-.448 1.594c-.78 1.313-1.558 2.312-2.333 2.996-.864.763-1.79 1.244-2.778 1.445.047-.423.085-1.1.114-2.032.03-.931.05-2.117.062-3.558.019-1.953.175-3.334.47-4.142.02-.028.064-.12.134-.28.088-.186.226-.442.412-.767.24-.433.334-.791.284-1.075-.1-.567-.53-.783-1.285-.649-.166.03-.41.232-.734.606-.3.37-.704.905-1.214 1.605l-3.722 4.977a63.935 63.935 0 0 0-1.444 1.958 1.432 1.432 0 0 0-.153.219 21.008 21.008 0 0 0-.938 1.454l-.48.872a25.139 25.139 0 0 1-1.684 2.146c-1.585 1.915-2.969 2.977-4.15 3.187-1.158.206-1.846-.305-2.064-1.534a4.164 4.164 0 0 1 .172-2.115c.15.022.32.016.509-.017 1.276-.227 2.746-1.073 4.412-2.54 1.876-1.65 2.696-3.136 2.461-4.46-.076-.425-.316-.748-.72-.968-.386-.248-.85-.324-1.394-.228-1.654.294-3.34 1.715-5.056 4.263-1.673 2.516-2.361 4.613-2.063 6.29.095.535.314.978.657 1.328a3.669 3.669 0 0 0-.034.316c-.304 2.127-.953 3.278-1.945 3.454-.45.08-.93-.017-1.442-.292a6.874 6.874 0 0 1-1.444-1.133c-.475-.476-.92-.994-1.337-1.553a15.05 15.05 0 0 1-.976-1.582c-.88-1.794-1.601-3.25-2.166-4.368a212.19 212.19 0 0 0-1.179-2.314c.49.01 1.01-.009 1.562-.058a21.71 21.71 0 0 0 1.785-.244 22.982 22.982 0 0 0 3.458-.908 18.17 18.17 0 0 0 3.281-1.497c1.015-.595 1.88-1.285 2.594-2.07a6.27 6.27 0 0 0 1.42-2.702c.147-.684.172-1.298.075-1.842-.226-1.276-.991-2.286-2.293-3.03-1.247-.704-2.774-1.066-4.581-1.086a28.804 28.804 0 0 0-5.44.455c-2.823.502-5.34 1.326-7.552 2.473.215-.274.425-.558.631-.853a23.776 23.776 0 0 0 2.26-4.007c2.196-5.114 4.072-9.542 5.629-13.286a722.609 722.609 0 0 0 3.817-9.192.32.32 0 0 0 .016-.148.32.32 0 0 0 .017-.147c-.032-.238-.238-.332-.62-.28-1.093.146-2.034.986-2.821 2.52-1.088 2.18-2.803 4.832-5.145 7.955-2.648 3.55-5.284 6.555-7.909 9.014-.924.874-1.648 1.347-2.17 1.417-.5.067-.793-.22-.88-.863-.088-.666.043-1.58.396-2.74.35-1.186.776-2.163 1.278-2.933a120.412 120.412 0 0 0 3.12-5.176c.865-1.496 1.533-2.748 2.003-3.755 1.113-2.353 1.597-4.077 1.45-5.17-.121-.905-.59-1.508-1.405-1.81-.815-.303-1.746-.384-2.793-.243-1.118.15-2.353.509-3.705 1.078A26.864 26.864 0 0 0 9.05 3.667c-1.253.774-2.308 1.569-3.167 2.386C1.602 10.066-.322 13.69.112 16.924c.153 1.142.608 2.098 1.365 2.868s1.754 1.073 2.99.907c1.57-.21 3.185-.996 4.843-2.356 1.5-1.267 2.311-2.356 2.431-3.268-.204.1-1.097.85-2.677 2.248-1.335 1.244-2.609 1.947-3.822 2.11-.927.124-1.743.003-2.446-.362-.682-.393-1.093-1.113-1.233-2.16-.137-1.023.006-2.12.43-3.29.425-1.17 1.034-2.318 1.828-3.441a16.408 16.408 0 0 1 2.622-2.93c4.04-3.641 7.32-5.63 9.842-5.969.999-.134 1.742-.1 2.23.101.483.177.76.528.83 1.05.048.358.007.775-.123 1.252a11.391 11.391 0 0 1-.539 1.67c-.696 1.668-1.846 3.844-3.447 6.529-.496.817-.993 1.622-1.493 2.415l-1.497 2.38c-1.346 2.239-1.892 4.31-1.637 6.213.214 1.593.998 2.3 2.354 2.118.857-.115 1.659-.453 2.407-1.013.772-.563 1.525-1.27 2.259-2.119a58.114 58.114 0 0 0 2.213-2.73 299.64 299.64 0 0 0 1.91-2.544 309.161 309.161 0 0 0 3.252-4.468l3.18-4.458-4.887 12.315c-1.684 4.245-3.27 7.496-4.759 9.754-1.465 2.255-2.936 3.481-4.41 3.679-.952.127-1.616-.038-1.992-.496-.373-.434-.77-1.144-1.193-2.129l-.295-.033-.25.034c-.5.067-.716.35-.649.85.073.547.344 1.031.812 1.452.492.419 1.055.73 1.688.937Zm20.759-12.008c.625.328 1.223.453 1.794.377.333-.045.742-.245 1.227-.6.509-.36 1.051-.916 1.628-1.672l1.926-2.437c-.041.417-.035.828.02 1.232.156 1.166.784 1.88 1.885 2.145.2.046.407.054.62.025 1.13-.15 2.466-1.337 4.012-3.559-.098.437-.127.806-.086 1.108.054.405.261.777.622 1.116.36.339.802.473 1.325.403.975-.13 2.187-.935 3.636-2.412l4.695-4.806-.916 3.464a27.771 27.771 0 0 1-1.227 3.579 28.166 28.166 0 0 1-1.319 2.9c-1.28 2.376-2.598 3.654-3.953 3.836-.595.08-1.241-.137-1.94-.648-.54-.412-.976-.778-1.309-1.096.085.812.457 1.513 1.117 2.102.657.566 1.366.798 2.128.696 2.307-.31 4.366-2.474 6.176-6.494 1.155-2.94 2.006-5.173 2.552-6.699.032-.125.174-.423.426-.892.248-.494.58-1.18.995-2.059.801-1.608 1.196-2.46 1.183-2.555-.07-.524-.426-.742-1.069-.656-.451.06-.868.382-1.25.966-.135.26-.281.522-.44.786-.161.24-.321.49-.48.754-.474.62-1.069 1.33-1.785 2.128a107.39 107.39 0 0 1-2.477 2.657c-2.28 2.315-3.802 3.524-4.563 3.626-.404.054-.627-.073-.669-.383-.105-.785.74-2.435 2.533-4.952 1.814-2.543 2.707-3.922 2.678-4.136-.073-.547-.478-.772-1.216-.673-.88.118-2.042 1.473-3.487 4.064-.181.32-.35.63-.506.927-2.44 3.919-4.235 5.955-5.383 6.11-.405.053-.703-.185-.895-.716-.251-.79.245-2.418 1.488-4.885 1.237-2.515 1.84-3.794 1.81-3.839-.046-.163-.19-.337-.433-.523a1.036 1.036 0 0 0-.793-.22.444.444 0 0 0-.24.104.798.798 0 0 1-.245.07c-.047.006-.138-.127-.271-.4-.11-.276-.259-.486-.448-.63-.344-.22-.79-.294-1.337-.22-2.022.27-4.125 1.836-6.308 4.695-2.207 2.863-3.07 5.194-2.586 6.994.145.537.53.97 1.155 1.298Zm6.398-5.652c-1.974 3.34-3.651 5.102-5.03 5.287-.453.06-.776-.187-.972-.742-.469-1.51.422-3.628 2.672-6.351 2.162-2.663 3.968-4.091 5.419-4.286.428-.057.76.068.995.375l-3.084 5.717Zm21.512 1.911c.625.328 1.223.454 1.794.377.333-.045.742-.245 1.227-.6.51-.359 1.052-.916 1.629-1.671l1.925-2.438c-.04.417-.034.828.02 1.232.156 1.166.785 1.881 1.886 2.145.2.046.406.055.62.026 1.618-.217 3.665-2.562 6.14-7.034.176-.314.251-.566.226-.757-.022-.166-.093-.242-.212-.226-.071.01-.136.067-.195.172-2.734 4.531-4.72 6.88-5.957 7.046-.404.054-.702-.185-.895-.716-.25-.79.245-2.418 1.489-4.885 1.237-2.515 1.84-3.794 1.81-3.838-.046-.164-.19-.338-.433-.523a1.036 1.036 0 0 0-.793-.221.444.444 0 0 0-.24.105.798.798 0 0 1-.245.069c-.048.006-.138-.127-.272-.4-.11-.276-.258-.486-.447-.63-.345-.22-.79-.293-1.337-.22-2.022.27-4.125 1.836-6.309 4.695-2.207 2.863-3.069 5.194-2.585 6.994.144.538.53.97 1.154 1.298Zm6.398-5.652c-1.974 3.34-3.65 5.102-5.03 5.287-.452.06-.776-.186-.971-.741-.47-1.512.422-3.629 2.672-6.352 2.161-2.662 3.967-4.091 5.419-4.285.428-.058.76.067.994.375l-3.084 5.716ZM41.373 41.762c-1.282 1.154-2.371 1.811-3.27 1.97a1.47 1.47 0 0 1-.473.012c.28-.757.649-1.493 1.107-2.208.458-.715.948-1.387 1.47-2.016 1.087-1.29 1.984-1.999 2.693-2.125.497-.088.772.022.827.329.058.33-.028.736-.26 1.216-.207.476-.51.968-.907 1.478-.378.481-.773.93-1.187 1.344Zm10.147 2.401c-.308.323-.734.533-1.278.63a2.845 2.845 0 0 1-2.206-.486c-.645-.47-1.004-1.187-1.077-2.149-.01-.193.07-.5.238-.92.165-.443.576-1.15 1.232-2.12.657-.97 1.331-1.906 2.024-2.81.692-.903 1.275-1.603 1.747-2.102l.072 1.23c.036.75.066 1.537.09 2.361.045.797.046 1.625.004 2.486-.064 1.01-.167 1.87-.31 2.578-.122.68-.301 1.114-.536 1.302Zm23.177-5.839c-1.252 2.148-2.385 3.313-3.401 3.493-.544.097-.892-.219-1.046-.947-.228-1.008.234-2.59 1.387-4.744 1.168-2.207 2.153-3.381 2.957-3.524.722.773 1.291 1.233 1.707 1.378.143.804-.392 2.252-1.604 4.344Z" clip-rule="evenodd"/></svg>